<svg>
    <symbol fill="none" xmlns="http://www.w3.org/2000/svg" viewBox="0 0 24 24" id="bag">
        <path d="M16.0004 9V6C16.0004 3.79086 14.2095 2 12.0004 2C9.79123 2 8.00037 3.79086 8.00037 6V9M3.59237 10.352L2.99237 16.752C2.82178 18.5717 2.73648 19.4815 3.03842 20.1843C3.30367 20.8016 3.76849 21.3121 4.35839 21.6338C5.0299 22 5.94374 22 7.77142 22H16.2293C18.057 22 18.9708 22 19.6423 21.6338C20.2322 21.3121 20.6971 20.8016 20.9623 20.1843C21.2643 19.4815 21.179 18.5717 21.0084 16.752L20.4084 10.352C20.2643 8.81535 20.1923 8.04704 19.8467 7.46616C19.5424 6.95458 19.0927 6.54511 18.555 6.28984C17.9444 6 17.1727 6 15.6293 6L8.37142 6C6.82806 6 6.05638 6 5.44579 6.28984C4.90803 6.54511 4.45838 6.95458 4.15403 7.46616C3.80846 8.04704 3.73643 8.81534 3.59237 10.352Z" stroke="#F8F7FF" stroke-width="2" stroke-linecap="round" stroke-linejoin="round"/>
    </symbol>
    <symbol fill="none" xmlns="http://www.w3.org/2000/svg" viewBox="0 0 24 24" id="play">
        <path d="M20.5 11.134C21.1667 11.5189 21.1667 12.4811 20.5 12.866L8.5 19.7942C7.83333 20.1791 7 19.698 7 18.9282L7 5.0718C7 4.302 7.83333 3.82087 8.5 4.20577L20.5 11.134Z" fill="#0265DC"/>
    </symbol>
    <symbol viewBox="0 0 150 150" fill="none" xmlns="http://www.w3.org/2000/svg" id="illustration">
        <path d="M9.08203 79.8253H18.6349C23.8957 79.8253 28.1604 75.5605 28.1604 70.2997C28.1604 65.0389 32.4252 60.7741 37.686 60.7741H50.6408C58.8478 60.7741 65.5008 54.1211 65.5008 45.9142C65.5008 37.7072 58.8478 31.0542 50.6408 31.0542" stroke="currentColor" stroke-width="3.5" stroke-miterlimit="10" stroke-linejoin="round"/>
        <path d="M105.508 114.551C117.958 114.551 128.051 104.458 128.051 92.0075C128.051 82.3943 122.034 74.1865 113.56 70.9451" stroke="currentColor" stroke-width="3.5" stroke-miterlimit="10" stroke-linejoin="round"/>
        <path d="M94.408 69.4648H70.1549C65.2916 69.4648 61.3491 73.4073 61.3491 78.2706C61.3491 83.1339 57.4066 87.0764 52.5434 87.0764H51.237C43.6503 87.0764 37.5 93.2267 37.5 100.813C37.4997 108.4 43.65 114.551 51.2367 114.551" stroke="currentColor" stroke-width="3.5" stroke-miterlimit="10" stroke-linejoin="round"/>
        <path d="M92.961 114.551V120.996C92.961 124.555 90.0753 127.441 86.5157 127.441H63.4805C59.9209 127.441 57.0352 124.555 57.0352 120.996V114.551" stroke="currentColor" stroke-width="3.5" stroke-miterlimit="10" stroke-linejoin="round"/>
        <path d="M118.117 65.296L103.066 54.7573" stroke="currentColor" stroke-width="3.5" stroke-miterlimit="10" stroke-linejoin="round"/>
        <path d="M133.887 140.332H16.1133C8.99385 140.332 3.22266 134.561 3.22266 127.441V114.551H146.777V127.441C146.777 134.561 141.006 140.332 133.887 140.332Z" stroke="currentColor" stroke-width="3.5" stroke-miterlimit="10" stroke-linecap="round" stroke-linejoin="round"/>
        <path d="M95.6289 69.3617C98.8492 61.6341 104.445 51.7045 111.636 41.4339C125.93 21.021 141.114 6.9919 145.551 10.0988C149.988 13.2058 141.998 32.2725 127.705 52.6854C120.488 62.9923 113.044 71.6718 106.871 77.3396" stroke="currentColor" stroke-width="3.5" stroke-miterlimit="10" stroke-linecap="round" stroke-linejoin="round"/>
        <path d="M83.4253 84.0278C84.2717 88.3743 83.2284 92.6431 80.875 95.9941C89.3099 99.3969 99.2289 96.8654 104.93 89.3944C109.201 83.7975 108.195 75.7005 102.424 71.6686C96.8945 67.8058 89.28 69.1517 85.4102 74.6783C83.4288 77.5081 82.8133 80.8854 83.4253 84.0278Z" stroke="currentColor" stroke-width="3.5" stroke-miterlimit="10" stroke-linecap="round" stroke-linejoin="round"/>
        <path d="M140.918 114.551V42.7734C140.918 40.1089 140.029 37.6521 138.531 35.6836" stroke="currentColor" stroke-width="3.5" stroke-miterlimit="10" stroke-linejoin="round"/>
        <path d="M119.241 31.0547H20.8008C14.3288 31.0547 9.08203 36.3015 9.08203 42.7734V114.551" stroke="currentColor" stroke-width="3.5" stroke-miterlimit="10" stroke-linejoin="round"/>
    </symbol>
    <symbol viewBox="0 0 150 150" fill="none" xmlns="http://www.w3.org/2000/svg" id="font">
        <path d="M75 60.9375V89.0625" stroke="currentColor" stroke-width="3.5" stroke-miterlimit="10" stroke-linecap="round" stroke-linejoin="round"/>
        <path d="M65.625 60.9375H84.375" stroke="currentColor" stroke-width="3.5" stroke-miterlimit="10" stroke-linecap="round" stroke-linejoin="round"/>
        <path d="M107.812 107.812H42.1875V42.1875H107.812V107.812Z" stroke="currentColor" stroke-width="3.5" stroke-miterlimit="10" stroke-linecap="round" stroke-linejoin="round"/>
        <mask id="mask0_4199_3763" style="mask-type:luminance" maskUnits="userSpaceOnUse" x="0" y="0" width="150" height="150">
        <path d="M0 1.52588e-05H150V150H0V1.52588e-05Z" fill="white"/>
        </mask>
        <g mask="url(#mask0_4199_3763)">
        <path d="M23.4375 23.4375H4.39453V4.39453H23.4375V23.4375Z" stroke="currentColor" stroke-width="3.5" stroke-miterlimit="10" stroke-linecap="round" stroke-linejoin="round"/>
        <path d="M23.4375 145.605H4.39453V126.563H23.4375V145.605Z" stroke="currentColor" stroke-width="3.5" stroke-miterlimit="10" stroke-linecap="round" stroke-linejoin="round"/>
        <path d="M145.605 145.605H126.562V126.563H145.605V145.605Z" stroke="currentColor" stroke-width="3.5" stroke-miterlimit="10" stroke-linecap="round" stroke-linejoin="round"/>
        <path d="M14.0625 23.4375V126.562" stroke="currentColor" stroke-width="3.5" stroke-miterlimit="10" stroke-linecap="round" stroke-linejoin="round"/>
        <path d="M126.562 23.4375H145.605V4.39453H126.562V23.4375Z" stroke="currentColor" stroke-width="3.5" stroke-miterlimit="10" stroke-linecap="round" stroke-linejoin="round"/>
        <path d="M135.938 42.1875V51.5625" stroke="currentColor" stroke-width="3.5" stroke-miterlimit="10" stroke-linecap="round" stroke-linejoin="round"/>
        <path d="M135.938 70.3125V79.6875" stroke="currentColor" stroke-width="3.5" stroke-miterlimit="10" stroke-linecap="round" stroke-linejoin="round"/>
        <path d="M135.938 98.4375V107.812" stroke="currentColor" stroke-width="3.5" stroke-miterlimit="10" stroke-linecap="round" stroke-linejoin="round"/>
        <path d="M23.4375 14.0625H126.562" stroke="currentColor" stroke-width="3.5" stroke-miterlimit="10" stroke-linecap="round" stroke-linejoin="round"/>
        <path d="M107.812 135.938H98.4375" stroke="currentColor" stroke-width="3.5" stroke-miterlimit="10" stroke-linecap="round" stroke-linejoin="round"/>
        <path d="M79.6875 135.938H70.3125" stroke="currentColor" stroke-width="3.5" stroke-miterlimit="10" stroke-linecap="round" stroke-linejoin="round"/>
        <path d="M51.5625 135.938H42.1875" stroke="currentColor" stroke-width="3.5" stroke-miterlimit="10" stroke-linecap="round" stroke-linejoin="round"/>
        </g>
    </symbol>
    <symbol viewBox="0 0 150 150" fill="none" xmlns="http://www.w3.org/2000/svg" id="presentation">
        <path d="M72.3712 62.0563H50.2266V39.8555" stroke="currentColor" stroke-width="3.5" stroke-miterlimit="10" stroke-linecap="round" stroke-linejoin="round"/>
        <path d="M146.777 6.33521H3.22266V22.0849H146.777V6.33521Z" stroke="currentColor" stroke-width="3.5" stroke-miterlimit="10" stroke-linecap="round" stroke-linejoin="round"/>
        <path d="M10.7734 99.8557V24.2595" stroke="currentColor" stroke-width="3.5" stroke-miterlimit="10" stroke-linecap="round" stroke-linejoin="round"/>
        <path d="M139.227 24.2595V99.8557" stroke="currentColor" stroke-width="3.5" stroke-miterlimit="10" stroke-linecap="round" stroke-linejoin="round"/>
        <path d="M75 120.111V125.603" stroke="currentColor" stroke-width="3.5" stroke-miterlimit="10" stroke-linecap="round" stroke-linejoin="round"/>
        <path d="M74.9997 143.665C79.5494 143.665 83.2377 139.968 83.2377 135.407C83.2377 130.847 79.5494 127.15 74.9997 127.15C70.45 127.15 66.7617 130.847 66.7617 135.407C66.7617 139.968 70.45 143.665 74.9997 143.665Z" stroke="currentColor" stroke-width="3.5" stroke-miterlimit="10" stroke-linecap="round" stroke-linejoin="round"/>
        <path d="M50.2284 86.8876C63.9093 86.8876 74.9998 75.7707 74.9998 62.0573C74.9998 48.3439 63.9093 37.2271 50.2284 37.2271C36.5476 37.2271 25.457 48.3439 25.457 62.0573C25.457 75.7707 36.5476 86.8876 50.2284 86.8876Z" stroke="currentColor" stroke-width="3.5" stroke-miterlimit="10" stroke-linecap="round" stroke-linejoin="round"/>
        <path d="M121.525 37.2271H89.5859V56.8035H121.525V37.2271Z" stroke="currentColor" stroke-width="3.5" stroke-miterlimit="10" stroke-linecap="round" stroke-linejoin="round"/>
        <path d="M89.5859 70.4119H121.525" stroke="currentColor" stroke-width="3.5" stroke-miterlimit="10" stroke-linecap="round" stroke-linejoin="round"/>
        <path d="M89.5859 83.3726H121.525" stroke="currentColor" stroke-width="3.5" stroke-miterlimit="10" stroke-linecap="round" stroke-linejoin="round"/>
        <path d="M146.777 102.03H3.22266V117.78H146.777V102.03Z" stroke="currentColor" stroke-width="3.5" stroke-miterlimit="10" stroke-linecap="round" stroke-linejoin="round"/>
    </symbol>
    <symbol viewBox="0 0 150 150" fill="none" xmlns="http://www.w3.org/2000/svg" id="social-media">
        <path d="M99.9734 98.6999H73.6484C72.6734 98.6999 71.9234 97.9499 71.9234 96.9749C71.9234 96.0749 72.6734 95.2499 73.6484 95.2499H99.9734V82.4999H95.9234H95.8484H95.7734H95.6984H95.5484L95.3984 82.4249H95.2484H95.0984H95.0234L94.8734 82.3499H94.7234L94.5734 82.2749H94.4984H94.3484L94.1984 82.1999L94.1234 82.1249H93.9734C93.8984 82.0499 93.8234 82.0499 93.7484 81.9749C93.5984 81.9749 93.4484 81.8999 93.3734 81.8249C91.6484 80.9249 90.5234 79.1249 90.5234 77.0249V49.9499C90.5234 48.2249 91.2734 46.7249 92.4734 45.7499L92.6234 45.6749L92.6984 45.5999L92.7734 45.5249H92.8484L92.9234 45.4499L92.9984 45.3749H93.0734V45.2999H93.1484L93.2234 45.2249H93.2984L93.3734 45.1499H93.4484L93.5234 45.0749C94.2734 44.6999 95.0984 44.4749 95.9234 44.4749H99.9734V41.9249C99.9734 39.8999 98.3984 38.3249 96.3734 38.3249H53.6234C51.5984 38.3249 50.0234 39.8999 50.0234 41.9249V51.2999H76.3484C77.3234 51.2999 78.0734 52.0499 78.0734 53.0249C78.0734 53.9249 77.3234 54.7499 76.3484 54.7499H50.0234V67.4999H54.0734H54.1484H54.2234H54.2984H54.3734H54.4484L54.5984 67.5749H54.7484H54.8234H54.8984H54.9734H55.0484L55.1234 67.6499H55.1984H55.2734L55.4234 67.7249H55.4984H55.6484V67.7999H55.7984L55.8734 67.8749H55.9484H56.0234L56.1734 67.9499L56.2484 68.0249H56.3984V68.0999H56.4734H56.5484L56.6234 68.1749L56.7734 68.2499L56.8484 68.3249L56.9984 68.3999H57.0734L57.1484 68.4749L57.2234 68.5499L57.2984 68.6249L57.3734 68.6999L57.4484 68.7749L57.5984 68.8499H57.6734V68.9249H57.7484V68.9999H57.8234V69.0749C57.8984 69.1499 57.9734 69.2249 58.1234 69.2999V69.3749L58.2734 69.5249L58.3484 69.5999L58.4234 69.6749V69.7499L58.4984 69.8999L58.5734 69.9749L58.6484 70.0499C58.6484 70.1249 58.7234 70.1999 58.7234 70.2749L58.7984 70.3499L58.8734 70.4249V70.4999L58.9484 70.5749V70.6499L59.0234 70.7249V70.8749L59.0984 70.9499C59.0984 71.0249 59.1734 71.0999 59.1734 71.0999V71.1749V71.2499H59.2484V71.3249V71.3999V71.4749V71.5499C59.3234 71.5499 59.3234 71.6249 59.3234 71.6999L59.3984 71.8499V71.9999V72.1499V72.2249L59.4734 72.3749V72.5249V72.6749V72.8249V72.9749V96.8249V100.05C59.4734 100.35 59.4734 100.65 59.3984 100.875C59.3984 101.025 59.3984 101.175 59.3234 101.25C59.3234 101.4 59.2484 101.55 59.2484 101.7L59.1734 101.775V101.85V101.925L59.0984 102.075C59.0984 102.15 59.0234 102.225 59.0234 102.3L58.9484 102.375V102.45L58.8734 102.525L58.7984 102.6V102.675L58.7234 102.75V102.825V102.9H58.6484V102.975L58.5734 103.05V103.125H58.4984V103.2H58.4234V103.275C58.3484 103.35 58.3484 103.35 58.3484 103.425L58.1984 103.5L58.1234 103.575V103.65C57.1484 104.775 55.6484 105.525 54.0734 105.525H50.0234V108.075C50.0234 110.1 51.5984 111.675 53.6234 111.675H96.3734C98.3984 111.675 99.9734 110.1 99.9734 108.075V98.6999ZM58.6484 70.0499C58.6484 70.1249 58.7234 70.1999 58.7234 70.2749L58.6484 70.0499ZM103.498 138.975H46.4984C42.0734 138.975 38.4734 135.375 38.4734 131.025V121.5V105.525H26.9234H26.7734L26.6234 105.45H26.5484H26.3984H26.2484H26.0984L25.9484 105.375H25.8734H25.7984H25.7234L25.5734 105.3C23.2484 104.7 21.5234 102.6 21.5234 100.05V72.9749C21.5234 69.9749 23.9234 67.4999 26.9234 67.4999H38.4734V28.4999V18.9749C38.4734 14.6249 42.0734 11.0249 46.4984 11.0249H103.498C107.923 11.0249 111.523 14.6249 111.523 18.9749V28.4249V28.4999V28.5749V44.4749H123.073C126.073 44.4749 128.473 46.9499 128.473 49.9499V77.0249C128.473 80.0249 126.073 82.4999 123.073 82.4999H111.523V121.5V131.025C111.523 135.375 107.923 138.975 103.498 138.975ZM40.1984 102.075H44.7734L41.8484 99.1499L41.7734 99.0749L32.2484 89.5499L24.8984 96.9749V100.05V100.125V100.2V100.275V100.35L24.9734 100.425V100.5V100.575V100.65L25.0484 100.725V100.8V100.875H25.1234V100.95V101.025L25.1984 101.1V101.175H25.2734V101.25L25.3484 101.325L25.4234 101.4L25.4984 101.475L25.5734 101.55V101.625H25.6484L25.7234 101.7L25.7984 101.775H25.8734L25.9484 101.85H26.0234L26.0984 101.925H26.1734H26.2484V102H26.3234H26.3984H26.4734L26.5484 102.075H26.6234H26.6984H26.7734H26.8484H26.9234H40.1984ZM93.9734 77.3249V77.3999V77.4749V77.5499V77.6249C94.0484 77.6249 94.0484 77.6999 94.0484 77.7749V77.8499H94.1234V77.9249V77.9999H94.1984V78.0749L94.2734 78.1499V78.2249H94.3484V78.2999L94.4234 78.3749C94.4984 78.4499 94.4984 78.5249 94.5734 78.5249V78.5999C94.9484 78.8999 95.4734 79.0499 95.9234 79.0499H101.698H101.773H109.798H109.873H123.073C124.198 79.0499 125.098 78.1499 125.098 77.0249V49.9499C125.098 48.8249 124.198 47.9249 123.073 47.9249H95.9234C95.0234 47.9249 94.1984 48.5999 93.9734 49.4249V49.4999V49.5749V49.6499V49.7249V49.7999H93.8984V49.8749V49.9499V77.0249V77.0999V77.1749H93.9734V77.2499V77.3249ZM41.9234 105.525V119.775H108.073V82.4999H103.423V96.8999V96.9749V97.0499V108.075C103.423 111.975 100.273 115.125 96.3734 115.125H53.6234C49.7234 115.125 46.5734 111.975 46.5734 108.075V105.525H41.9234ZM41.9234 123.225V131.025C41.9234 133.5 43.9484 135.6 46.4984 135.6H103.498C106.048 135.6 108.073 133.5 108.073 131.025V123.225H41.9234ZM103.423 44.4749H108.073V30.2249H41.9234V67.4999H46.5734V41.9249C46.5734 38.0249 49.7234 34.8749 53.6234 34.8749H96.3734C100.273 34.8749 103.423 38.0249 103.423 41.9249V44.4749ZM108.073 26.7749V18.9749C108.073 16.4999 106.048 14.3999 103.498 14.3999H89.0984V15.8999C89.0984 18.6749 86.8484 20.8499 84.1484 20.8499H65.8484C63.1484 20.8499 60.8984 18.6749 60.8984 15.8999V14.3999H46.4984C43.9484 14.3999 41.9234 16.4999 41.9234 18.9749V26.7749H108.073ZM64.3484 14.3999V15.8999C64.3484 16.7999 65.0234 17.4749 65.8484 17.4749H84.1484C84.9734 17.4749 85.6484 16.7999 85.6484 15.8999V14.3999H64.3484ZM81.3734 131.1H68.0234C67.1234 131.1 66.3734 130.35 66.3734 129.375C66.3734 128.475 67.1234 127.725 68.0234 127.725H81.3734C82.3484 127.725 83.0984 128.475 83.0984 129.375C83.0984 130.35 82.3484 131.1 81.3734 131.1ZM49.4984 102.075H54.0734C55.1234 102.075 56.0984 101.175 56.0984 100.05V97.5749L50.9234 92.3999L45.4484 97.9499L48.5984 101.1L49.1984 101.7H49.2734V101.775C49.3484 101.85 49.4234 101.925 49.4984 102.075ZM56.0984 92.6999V72.9749C56.0984 72.5999 56.0234 72.2999 55.8734 72.0749C55.7984 71.9999 55.7984 71.9999 55.7984 71.9249L55.7234 71.8499V71.7749H55.6484V71.6999L55.5734 71.6249V71.5499H55.4984L55.4234 71.4749L55.3484 71.3999L55.2734 71.3249H55.1984V71.2499H55.1234L55.0484 71.1749H54.9734V71.0999H54.8984C54.6734 71.0249 54.3734 70.9499 54.0734 70.9499H26.9234C25.7984 70.9499 24.8984 71.8499 24.8984 72.9749V92.0999L31.0484 85.9499C31.7234 85.2749 32.8484 85.2749 33.4484 85.9499L43.0484 95.4749L49.7234 88.7999C50.3984 88.1249 51.5234 88.1249 52.1234 88.7999L56.0984 92.6999ZM93.9734 82.1249C93.8984 82.0499 93.8234 82.0499 93.7484 81.9749L93.9734 82.1249ZM43.4984 87.8999C39.8234 87.8999 36.8234 84.8999 36.8234 81.2249C36.8234 77.5499 39.8234 74.5499 43.4984 74.5499C47.1734 74.5499 50.1734 77.5499 50.1734 81.2249C50.1734 84.8999 47.1734 87.8999 43.4984 87.8999ZM43.4984 77.9249C41.6984 77.9249 40.1984 79.4249 40.1984 81.2249C40.1984 83.0249 41.6984 84.5249 43.4984 84.5249C45.2984 84.5249 46.7984 83.0249 46.7984 81.2249C46.7984 79.4249 45.2984 77.9249 43.4984 77.9249ZM119.248 57.2999H108.373C107.473 57.2999 106.648 56.5499 106.648 55.5749C106.648 54.6749 107.473 53.8499 108.373 53.8499H119.248C120.148 53.8499 120.898 54.6749 120.898 55.5749C120.898 56.5499 120.148 57.2999 119.248 57.2999ZM102.898 57.2999H99.8234C98.8484 57.2999 98.0984 56.5499 98.0984 55.5749C98.0984 54.6749 98.8484 53.8499 99.8234 53.8499H102.898C103.873 53.8499 104.623 54.6749 104.623 55.5749C104.623 56.5499 103.873 57.2999 102.898 57.2999ZM119.248 65.1749H116.473C115.498 65.1749 114.748 64.4249 114.748 63.5249C114.748 62.5499 115.498 61.7999 116.473 61.7999H119.248C120.148 61.7999 120.898 62.5499 120.898 63.5249C120.898 64.4249 120.148 65.1749 119.248 65.1749ZM109.498 65.1749H99.8234C98.8484 65.1749 98.0984 64.4249 98.0984 63.5249C98.0984 62.5499 98.8484 61.7999 99.8234 61.7999H109.498C110.398 61.7999 111.223 62.5499 111.223 63.5249C111.223 64.4249 110.398 65.1749 109.498 65.1749ZM119.248 73.1249H110.848C109.948 73.1249 109.123 72.3749 109.123 71.3999C109.123 70.4999 109.948 69.6749 110.848 69.6749H119.248C120.148 69.6749 120.898 70.4999 120.898 71.3999C120.898 72.3749 120.148 73.1249 119.248 73.1249ZM103.723 73.1249H99.8234C98.8484 73.1249 98.0984 72.3749 98.0984 71.3999C98.0984 70.4999 98.8484 69.6749 99.8234 69.6749H103.723C104.623 69.6749 105.448 70.4999 105.448 71.3999C105.448 72.3749 104.623 73.1249 103.723 73.1249Z" fill="currentColor"/>
    </symbol>
    <symbol viewBox="0 0 150 150" fill="none" xmlns="http://www.w3.org/2000/svg" id="ui-kit">
        <mask id="mask0_4199_3722" style="mask-type:luminance" maskUnits="userSpaceOnUse" x="0" y="0" width="150" height="150">
        <path d="M0 1.52588e-05H150V150H0V1.52588e-05Z" fill="white"/>
        </mask>
        <g mask="url(#mask0_4199_3722)">
        <path d="M42.2741 143.038H100.116C100.913 143.038 101.578 142.382 101.578 141.576V138.146C101.578 135.447 99.3687 133.246 96.6778 133.246H45.7039C43.0133 133.246 40.8125 135.447 40.8125 138.146V141.576C40.8125 142.382 41.4685 143.038 42.2741 143.038Z" stroke="currentColor" stroke-width="3.5" stroke-miterlimit="10" stroke-linecap="round" stroke-linejoin="round"/>
        <path d="M51.7344 133.246L55.6461 120.166M86.7468 120.166L90.65 133.246" stroke="currentColor" stroke-width="3.5" stroke-miterlimit="10" stroke-linecap="round" stroke-linejoin="round"/>
        <path d="M18.1562 109.054H112.821" stroke="currentColor" stroke-width="3.5" stroke-miterlimit="10" stroke-linecap="round" stroke-linejoin="round"/>
        <path d="M2.19531 81.6397C2.19531 83.7658 3.93086 85.5095 6.05693 85.5095H93.1645C95.2905 85.5095 97.0261 83.7658 97.0261 81.6397V10.8239C97.0261 8.69781 95.2905 6.96226 93.1645 6.96226H6.05693C3.93086 6.96226 2.19531 8.69781 2.19531 10.8239V81.6397Z" stroke="currentColor" stroke-width="3.5" stroke-miterlimit="10" stroke-linecap="round" stroke-linejoin="round"/>
        <path d="M66.124 120.166H22.1591C19.9583 120.166 18.1562 118.364 18.1562 116.163V85.5096M112.821 120.166H76.2309M97.0258 46.5931H120.229C122.429 46.5931 124.232 48.3951 124.232 50.5959V90.6005" stroke="currentColor" stroke-width="3.5" stroke-miterlimit="10" stroke-linecap="round" stroke-linejoin="round"/>
        <path d="M54.6892 27.4585H97.0264M2.19531 27.4585H44.5407" stroke="currentColor" stroke-width="3.5" stroke-miterlimit="10" stroke-linecap="round" stroke-linejoin="round"/>
        <path d="M85.4062 17.2021V17.2188" stroke="currentColor" stroke-width="3.5" stroke-miterlimit="10" stroke-linecap="round" stroke-linejoin="round"/>
        <path d="M74.5469 17.2021V17.2188" stroke="currentColor" stroke-width="3.5" stroke-miterlimit="10" stroke-linecap="round" stroke-linejoin="round"/>
        <path d="M63.6836 17.2021V17.2188" stroke="currentColor" stroke-width="3.5" stroke-miterlimit="10" stroke-linecap="round" stroke-linejoin="round"/>
        <path d="M13.8125 17.2021L36.3017 17.2188" stroke="currentColor" stroke-width="3.5" stroke-miterlimit="10" stroke-linecap="round" stroke-linejoin="round"/>
        <path d="M84.2273 38.7781H51.6896C50.8758 38.7781 50.2031 39.4426 50.2031 40.2646V50.0729C50.2031 50.8947 50.8758 51.5674 51.6896 51.5674H84.2273C85.0412 51.5674 85.7139 50.8947 85.7139 50.0729V40.2646C85.7139 39.4426 85.0412 38.7781 84.2273 38.7781Z" stroke="currentColor" stroke-width="3.5" stroke-miterlimit="10" stroke-linecap="round" stroke-linejoin="round"/>
        <path d="M85.7136 63.7842H50.2031" stroke="currentColor" stroke-width="3.5" stroke-miterlimit="10" stroke-linecap="round" stroke-linejoin="round"/>
        <path d="M67.5349 74.1902H85.7136M50.2031 74.1902H55.626" stroke="currentColor" stroke-width="3.5" stroke-miterlimit="10" stroke-linecap="round" stroke-linejoin="round"/>
        <path d="M130.313 134.251H130.238" stroke="currentColor" stroke-width="3.5" stroke-miterlimit="10" stroke-linecap="round" stroke-linejoin="round"/>
        <path d="M116.865 143.038H143.747C145.972 143.038 147.8 141.219 147.8 138.985V94.645C147.8 92.4193 145.972 90.6006 143.747 90.6006H116.865C114.639 90.6006 112.82 92.4193 112.82 94.645V138.985C112.82 141.219 114.639 143.038 116.865 143.038Z" stroke="currentColor" stroke-width="3.5" stroke-miterlimit="10" stroke-linecap="round" stroke-linejoin="round"/>
        <path d="M15.0028 38.7782H37.4006C38.2227 38.7782 38.8953 39.4426 38.8953 40.2647V72.6955C38.8953 73.5175 38.2227 74.1902 37.4006 74.1902H15.0028C14.1808 74.1902 13.5078 73.5175 13.5078 72.6955V40.2647C13.5078 39.4426 14.1808 38.7782 15.0028 38.7782Z" stroke="currentColor" stroke-width="3.5" stroke-miterlimit="10" stroke-linecap="round" stroke-linejoin="round"/>
        </g>
    </symbol>
    <symbol viewBox="0 0 24 24" fill="none" xmlns="http://www.w3.org/2000/svg" id="trophy">
        <path d="M12 15C8.68629 15 6 12.3137 6 9V3.44444C6 3.0306 6 2.82367 6.06031 2.65798C6.16141 2.38021 6.38021 2.16141 6.65798 2.06031C6.82367 2 7.0306 2 7.44444 2H16.5556C16.9694 2 17.1763 2 17.342 2.06031C17.6198 2.16141 17.8386 2.38021 17.9397 2.65798C18 2.82367 18 3.0306 18 3.44444V9C18 12.3137 15.3137 15 12 15ZM12 15V18M18 4H20.5C20.9659 4 21.1989 4 21.3827 4.07612C21.6277 4.17761 21.8224 4.37229 21.9239 4.61732C22 4.80109 22 5.03406 22 5.5V6C22 6.92997 22 7.39496 21.8978 7.77646C21.6204 8.81173 20.8117 9.62038 19.7765 9.89778C19.395 10 18.93 10 18 10M6 4H3.5C3.03406 4 2.80109 4 2.61732 4.07612C2.37229 4.17761 2.17761 4.37229 2.07612 4.61732C2 4.80109 2 5.03406 2 5.5V6C2 6.92997 2 7.39496 2.10222 7.77646C2.37962 8.81173 3.18827 9.62038 4.22354 9.89778C4.60504 10 5.07003 10 6 10M7.44444 22H16.5556C16.801 22 17 21.801 17 21.5556C17 19.5919 15.4081 18 13.4444 18H10.5556C8.59188 18 7 19.5919 7 21.5556C7 21.801 7.19898 22 7.44444 22Z" stroke="#F8F7FF" stroke-width="2" stroke-linecap="round" stroke-linejoin="round"/>
    </symbol>
    <symbol viewBox="0 0 24 24" fill="none" xmlns="http://www.w3.org/2000/svg" id="arrow">
        <path d="M15 18L9 12L15 6" stroke="currentColor" stroke-width="2" stroke-linecap="round" stroke-linejoin="round"/>
    </symbol>
    <symbol viewBox="0 0 24 24" fill="none" xmlns="http://www.w3.org/2000/svg" id="telegram">
        <path d="M23.5468 2.42273C23.1374 2.11452 22.4944 2.07042 21.8295 2.30739H21.8285C21.1292 2.55649 2.03537 9.82768 1.25808 10.1247C1.11671 10.1684 -0.118008 10.5774 0.00917513 11.4885C0.122712 12.3099 1.11507 12.6501 1.23625 12.6893L6.0905 14.165C6.41255 15.1168 7.59977 18.6283 7.86233 19.3785C8.02608 19.8462 8.293 20.4607 8.7608 20.5871C9.17128 20.7277 9.57957 20.5993 9.84376 20.4151L12.8116 17.9712L17.6025 21.2884L17.7166 21.349C18.0419 21.4769 18.3536 21.5409 18.6511 21.5409C18.8809 21.5409 19.1014 21.5026 19.3121 21.426C20.0299 21.1643 20.317 20.5571 20.347 20.4883L23.9256 3.97399C24.144 3.09199 23.8405 2.64323 23.5468 2.42273ZM10.3716 14.7553L8.73405 18.6322L7.0965 13.786L19.6511 5.54754L10.3716 14.7553Z" fill="#0D0D15"/>
    </symbol>
    <symbol viewBox="0 0 24 24" fill="none" xmlns="http://www.w3.org/2000/svg" id="twitter">
        <path d="M19.6441 6.18005C20.5012 5.64387 21.1425 4.7996 21.4483 3.80486C20.6429 4.30492 19.7618 4.65717 18.8429 4.84639C17.569 3.43621 15.5505 3.09303 13.9155 4.00862C12.2804 4.92421 11.4335 6.87189 11.848 8.76335C8.54901 8.59003 5.47544 6.95936 3.3921 4.2771C2.30485 6.2395 2.86046 8.74812 4.66182 10.01C4.01043 9.98806 3.37348 9.80351 2.80409 9.4717C2.80409 9.48971 2.80409 9.50772 2.80409 9.52573C2.80447 11.5699 4.18125 13.3307 6.09599 13.7358C5.49179 13.9079 4.85802 13.9332 4.24304 13.8099C4.78153 15.558 6.32121 16.7556 8.07611 16.7914C6.62265 17.9851 4.82769 18.6325 2.98002 18.6293C2.65252 18.6298 2.32528 18.6101 2 18.5703C3.87627 19.8319 6.06002 20.5016 8.29028 20.4992C11.3931 20.5215 14.375 19.2415 16.569 16.9455C18.763 14.6494 19.986 11.529 19.9644 8.28211C19.9644 8.09601 19.9603 7.91092 19.952 7.72683C20.7556 7.11913 21.4491 6.3663 22 5.50372C21.2514 5.85095 20.4573 6.07893 19.6441 6.18005Z" fill="#0D0D15"/>
    </symbol>
    <symbol viewBox="0 0 24 24" fill="none" xmlns="http://www.w3.org/2000/svg" id="facebook">
        <path d="M2.00195 12.0614C2.00312 17.0111 5.58035 21.2255 10.439 22.0012V14.9692H7.90195V12.0614H10.442V9.84786C10.3284 8.79898 10.6845 7.75363 11.4136 6.99534C12.1427 6.23703 13.1693 5.84437 14.215 5.92385C14.9655 5.93604 15.7141 6.0033 16.455 6.12508V8.59922H15.191C14.7558 8.54187 14.3183 8.68647 14.0017 8.99229C13.6851 9.2981 13.5237 9.73203 13.563 10.1718V12.0614H16.334L15.891 14.9702H13.563V22.0012C18.8174 21.1657 22.502 16.3373 21.9475 11.0141C21.3929 5.69079 16.7932 1.73615 11.4808 2.01511C6.16831 2.29407 2.0028 6.70896 2.00195 12.0614Z" fill="#0D0D15"/>
    </symbol>
</svg>